<svg t="1656493744162" class="icon" viewBox="0 0 1028 1024" version="1.1" xmlns="http://www.w3.org/2000/svg" p-id="915" width="200" height="200"><path d="M956.97216 654.08A448 448 0 0 0 644.01216 146.56 128 128 0 0 0 644.01216 128a128 128 0 0 0-256 0 128 128 0 0 0 0 18.56 448 448 0 0 0-314.88 507.52 128 128 0 1 0 116.48 227.84 448 448 0 0 0 653.44 0A128 128 0 0 0 900.01216 896a128 128 0 0 0 56.96-241.92z m-339.84-448A384 384 0 0 1 894.25216 640a128 128 0 0 0-26.24 3.84L604.33216 218.88a128 128 0 0 0 12.8-12.8zM516.01216 64a64 64 0 1 1-64 64 64 64 0 0 1 64-64zM414.89216 206.08a128 128 0 0 0 12.16 12.8L164.01216 644.48a128 128 0 0 0-26.24-4.48 384 384 0 0 1 277.12-433.92zM132.01216 832a64 64 0 1 1 64-64 64 64 0 0 1-64 64z m384 128a384 384 0 0 1-278.4-119.68s0-5.76 3.84-8.32h548.48s0 5.76 3.84 8.32A384 384 0 0 1 516.01216 960z m256-192H260.01216a128 128 0 0 0-39.04-91.52l262.4-424.96a118.4 118.4 0 0 0 64 0l262.4 424.96A128 128 0 0 0 772.01216 768z m128 64a64 64 0 1 1 64-64 64 64 0 0 1-64 64z" fill="#10239e" p-id="916"></path></svg><svg t="1656493744162" class="icon" viewBox="0 0 1028 1024" version="1.1" xmlns="http://www.w3.org/2000/svg" p-id="915" width="200" height="200"><path d="M956.97216 654.08A448 448 0 0 0 644.01216 146.56 128 128 0 0 0 644.01216 128a128 128 0 0 0-256 0 128 128 0 0 0 0 18.56 448 448 0 0 0-314.88 507.52 128 128 0 1 0 116.48 227.84 448 448 0 0 0 653.44 0A128 128 0 0 0 900.01216 896a128 128 0 0 0 56.96-241.92z m-339.84-448A384 384 0 0 1 894.25216 640a128 128 0 0 0-26.24 3.84L604.33216 218.88a128 128 0 0 0 12.8-12.8zM516.01216 64a64 64 0 1 1-64 64 64 64 0 0 1 64-64zM414.89216 206.08a128 128 0 0 0 12.16 12.8L164.01216 644.48a128 128 0 0 0-26.24-4.48 384 384 0 0 1 277.12-433.92zM132.01216 832a64 64 0 1 1 64-64 64 64 0 0 1-64 64z m384 128a384 384 0 0 1-278.4-119.68s0-5.76 3.84-8.32h548.48s0 5.76 3.84 8.32A384 384 0 0 1 516.01216 960z m256-192H260.01216a128 128 0 0 0-39.04-91.52l262.4-424.96a118.4 118.4 0 0 0 64 0l262.4 424.96A128 128 0 0 0 772.01216 768z m128 64a64 64 0 1 1 64-64 64 64 0 0 1-64 64z" fill="#08979c" p-id="916"></path></svg>
