<svg version="1.0" xmlns="http://www.w3.org/2000/svg"
     width="204.000000pt" height="200.000000pt" viewBox="0 0 204.000000 200.000000"
     preserveAspectRatio="xMidYMid meet">

  <g transform="translate(0.000000,200.000000) scale(0.100000,-0.100000)"
     fill="#08979c" stroke="none">
    <path d="M805 1879 c-116 -66 -220 -130 -232 -141 -23 -21 -23 -25 -23 -280
l0 -259 25 -24 24 -25 -24 -25 c-14 -13 -25 -34 -25 -46 0 -16 -4 -19 -17 -14
-10 4 -26 10 -35 12 -18 5 -437 -226 -470 -259 -16 -16 -18 -43 -18 -276 0
-255 0 -259 22 -280 36 -33 430 -255 452 -254 28 0 425 227 454 258 12 14 22
33 22 44 0 16 3 17 30 7 22 -8 38 -8 60 0 27 10 30 9 30 -7 0 -11 10 -30 23
-43 32 -36 448 -268 467 -262 9 3 113 61 231 128 142 82 218 131 226 148 15
29 18 484 4 521 -6 17 -73 61 -230 151 -206 119 -261 142 -276 117 -11 -17
-25 -11 -25 10 0 12 -11 32 -25 45 l-24 25 24 25 25 24 0 260 c0 244 -1 261
-19 278 -22 21 -444 263 -457 263 -5 0 -103 -55 -219 -121z m380 -142 l160
-93 0 -188 0 -187 -26 -16 c-26 -16 -29 -14 -151 55 -69 40 -134 72 -145 72
-10 0 -75 -32 -143 -71 -120 -69 -125 -71 -149 -56 l-26 16 0 191 0 192 155
89 c85 49 157 89 160 89 3 0 77 -42 165 -93z m-15 -537 c19 -15 17 -17 -61
-63 -45 -26 -85 -47 -89 -47 -12 0 -156 84 -161 94 -2 4 32 30 76 56 l80 48
67 -37 c37 -20 77 -43 88 -51z m-321 -190 c87 -49 165 -90 176 -90 10 0 86 39
168 86 130 75 153 86 176 78 21 -8 26 -16 29 -49 l3 -40 -141 -80 c-78 -44
-149 -88 -158 -98 -14 -16 -18 -49 -22 -200 l-5 -181 -27 -16 c-25 -13 -30
-13 -55 2 l-28 17 -5 183 c-3 101 -8 188 -13 195 -4 6 -74 49 -157 95 l-149
83 -1 36 c0 27 6 41 23 52 12 9 24 16 26 16 2 1 74 -39 160 -89z m-329 -115
l30 -16 0 -149 0 -149 33 -24 c17 -13 76 -50 130 -81 91 -53 97 -59 97 -89 0
-31 -5 -35 -157 -122 -86 -50 -162 -90 -168 -90 -6 0 -82 40 -168 90 l-157 90
0 186 0 186 157 91 c87 50 162 91 166 91 4 1 21 -6 37 -14z m1205 -73 l150
-88 3 -191 2 -191 -142 -82 c-79 -46 -150 -88 -159 -93 -11 -7 -55 14 -177 83
l-162 93 0 36 c0 35 3 37 98 90 53 30 112 65 130 78 l32 24 0 149 0 149 28 15
c15 8 32 15 37 15 6 0 78 -39 160 -87z m-993 -48 l78 -46 0 -100 c0 -55 -4
-98 -8 -96 -4 2 -43 23 -85 48 l-77 45 0 98 c0 53 3 97 7 97 3 0 42 -21 85
-46z m668 -52 l0 -97 -57 -34 c-32 -19 -68 -41 -81 -49 l-23 -15 3 103 3 103
70 43 c39 24 73 44 78 44 4 0 7 -44 7 -98z"/>
  </g>
</svg>
