<svg t="1658460851438" class="icon" viewBox="0 0 1024 1024" version="1.1" xmlns="http://www.w3.org/2000/svg" p-id="4070" width="200" height="200"><path d="M805.385 211.449l-88.253-88.255-48.592 43.024 101.977 84.506zM63.637 700.844l163.518 163.558L599.69 440.181l-101.666-120.88zM761.778 259.459l-101.936-84.465-57.562-47.742-132.671 132.672 40.05 48.321 100.818 121.73 168.814 207.666 200.666-200.669-218.179-177.513z m36.339 333.03c-7.654 7.614-19.638 8.041-26.829 0.967-7.111-7.19-6.686-19.174 0.967-26.829l135.803-135.801c7.654-7.693 19.636-8.118 26.825-0.966 7.116 7.151 6.689 19.173-0.963 26.828L798.117 592.489z" p-id="4071" fill="#08979c"></path></svg>
